<svg width="100%" height="100%" viewBox="0 0 600 360" xmlns="http://www.w3.org/2000/svg">
  <defs>
    <linearGradient id="grassGradient" x1="0" x2="0" y1="0" y2="1">
      <stop offset="0%" stop-color="#2a6f2b" />
      <stop offset="100%" stop-color="#1d4c1c" />
    </linearGradient>
    <radialGradient id="treeGradient" cx="50%" cy="30%" r="40%">
      <stop offset="0%" stop-color="#8fd18f" />
      <stop offset="100%" stop-color="#3d7a3d" />
    </radialGradient>
  </defs>
  <rect width="600" height="360" rx="24" ry="24" fill="url(#grassGradient)" />
  <rect x="40" y="40" width="520" height="280" rx="20" fill="rgba(255,255,255,0.05)" />
  <g opacity="0.6">
    <rect x="70" y="60" width="120" height="80" rx="18" fill="#3b8b3b" />
    <rect x="430" y="60" width="100" height="80" rx="18" fill="#3b8b3b" />
    <rect x="150" y="220" width="200" height="80" rx="18" fill="#3b8b3b" />
  </g>
  <path d="M50 200 Q120 180 190 220 T330 190 Q380 170 430 205 T560 190" fill="none" stroke="#d3ba7f" stroke-width="10" opacity="0.5" />
  <circle cx="110" cy="110" r="24" fill="url(#treeGradient)" />
  <circle cx="480" cy="100" r="22" fill="url(#treeGradient)" />
  <circle cx="260" cy="255" r="26" fill="url(#treeGradient)" />
  <circle cx="350" cy="140" r="18" fill="url(#treeGradient)" />
  <circle cx="520" cy="250" r="20" fill="url(#treeGradient)" />
  <path d="M118 110 L118 150" stroke="#4f5c47" stroke-width="8" />
  <path d="M488 100 L488 140" stroke="#4f5c47" stroke-width="7" />
  <path d="M256 255 L256 295" stroke="#4f5c47" stroke-width="9" />
  <path d="M348 140 L348 175" stroke="#4f5c47" stroke-width="6" />
  <path d="M520 250 L520 290" stroke="#4f5c47" stroke-width="7" />
  <circle cx="300" cy="90" r="12" fill="#fff6a5" opacity="0.6" />
  <circle cx="380" cy="70" r="8" fill="#fff6a5" opacity="0.5" />
  <circle cx="180" cy="50" r="10" fill="#fff6a5" opacity="0.5" />
</svg>
